<svg xmlns="http://www.w3.org/2000/svg" width="71.733" height="62.666" viewBox="0 0 71.733 62.666">
  <g id="Group_25641" data-name="Group 25641" transform="translate(-168.582 -4392.512)">
    <g id="Group_25636" data-name="Group 25636" transform="translate(-529.347 2284.371) rotate(20)">
      <path id="blob" d="M1.12-31.792c3.9,3.071,5.629,8.892,6.461,14.713S8.413-5.436,6.238,0C4.127,5.439-.159,10.557-5.277,11.836c-5.182,1.343-11.195-1.151-16.249-4.03a43.519,43.519,0,0,1-12.6-10.555c-3.582-4.414-6.845-9.915-6.973-15.8-.064-5.949,3.007-12.282,7.868-15.161,4.926-2.943,11.643-2.431,18.04-1.983S-2.718-34.927,1.12-31.792Z" transform="translate(1433.645 1773.164)" fill="rgba(22,108,249,0.23)"/>
    </g>
    <g id="Group_25666" data-name="Group 25666" transform="translate(-426.024 5023.932)">
      <path id="Path_32262" data-name="Path 32262" d="M818.6-181.99a1.388,1.388,0,0,1-.7-1.393c.029-1.459,0-2.919.013-4.379.007-.822.636-1.314,1.318-1.053a.958.958,0,0,1,.646.954c.01,1.607,0,3.215.005,4.822a1.241,1.241,0,0,1-.69,1.049Z" transform="translate(-172.99 -398.417)" fill="#166cf9" stroke="#166cf9" stroke-width="1"/>
      <path id="Path_32263" data-name="Path 32263" d="M627.965-493.6c1.579-1.33,3.084-2.579,4.565-3.857A2.106,2.106,0,0,1,634-498q14.06.019,28.12.008c1.219,0,1.827-.687,1.7-1.973h-.521q-2.886,0-5.772,0c-.661,0-1.066-.272-1.168-.761-.145-.693.312-1.2,1.111-1.208,1.924-.008,3.848,0,5.772,0h.616v-.586q0-9.62,0-19.24c0-1.413-.523-1.942-1.927-1.942q-10.952,0-21.9,0a4.543,4.543,0,0,1-.737-.04.963.963,0,0,1-.784-.942.966.966,0,0,1,.743-.928,2.971,2.971,0,0,1,.635-.06q11.051,0,22.1,0a3.543,3.543,0,0,1,3.846,3.881q0,10.952,0,21.9a3.543,3.543,0,0,1-3.9,3.876q-13.764,0-27.528-.007a1.324,1.324,0,0,0-.927.341c-1.891,1.609-3.8,3.2-5.691,4.8a1.1,1.1,0,0,1-1.259.285,1.071,1.071,0,0,1-.566-1.11q.005-15.146.005-30.291a3.483,3.483,0,0,1,3.548-3.674c.64-.031,1.283-.02,1.924,0,.7.02,1.13.408,1.131.981s-.431.964-1.128.983c-.641.017-1.283-.012-1.924.011a1.5,1.5,0,0,0-1.578,1.637q-.005,14.035,0,28.071C627.949-493.892,627.957-493.8,627.965-493.6Z" transform="translate(0 -94.85)" fill="#166cf9" stroke="#166cf9" stroke-width="1"/>
      <path id="Path_32266" data-name="Path 32266" d="M819.95-627.474c0,.756.005,1.512,0,2.268-.007.714-.4,1.177-.986,1.176s-.981-.464-.984-1.178q-.009-2.268,0-4.536c0-.715.4-1.176.986-1.175s.978.462.984,1.178C819.955-628.987,819.95-628.23,819.95-627.474Z" transform="translate(-173.056)" fill="#166cf9" stroke="#166cf9" stroke-width="1"/>
      <path id="Path_32267" data-name="Path 32267" d="M713.069-607.415a4,4,0,0,1-.564.739.709.709,0,0,1-.96,0c-1.284-1.244-2.554-2.5-3.792-3.793a.865.865,0,0,1,.14-1.167.934.934,0,0,1,1.135-.172.32.32,0,0,1,.082.054c1.243,1.241,2.489,2.479,3.72,3.731C712.945-607.907,712.963-607.7,713.069-607.415Z" transform="translate(-73.558 -17.118)" fill="#166cf9" stroke="#166cf9" stroke-width="1"/>
      <path id="Path_32268" data-name="Path 32268" d="M898.907-610.729a2.937,2.937,0,0,1-.4.654c-1.053,1.084-2.126,2.149-3.2,3.212a1,1,0,0,1-1.521.111,1.006,1.006,0,0,1,.117-1.486q1.611-1.63,3.241-3.241a.989.989,0,0,1,1.161-.293A1.027,1.027,0,0,1,898.907-610.729Z" transform="translate(-241.137 -17.18)" fill="#166cf9" stroke="#166cf9" stroke-width="1"/>
      <path id="Path_32269" data-name="Path 32269" d="M713.191-191.785a2.608,2.608,0,0,1-.372.63q-1.616,1.66-3.272,3.281a.981.981,0,0,1-1.486.074,1,1,0,0,1,.09-1.454q1.641-1.67,3.312-3.311a.96.96,0,0,1,1.126-.255A1.038,1.038,0,0,1,713.191-191.785Z" transform="translate(-73.744 -394.79)" fill="#166cf9" stroke="#166cf9" stroke-width="1"/>
      <path id="Path_32270" data-name="Path 32270" d="M898.92-188.749a.988.988,0,0,1-1.373,1,1.654,1.654,0,0,1-.431-.322q-1.592-1.58-3.17-3.173a1.433,1.433,0,0,1-.358-.519.915.915,0,0,1,.34-1.092.889.889,0,0,1,1.219.062c1.191,1.154,2.36,2.332,3.519,3.519A1.525,1.525,0,0,1,898.92-188.749Z" transform="translate(-241.157 -394.649)" fill="#166cf9" stroke="#166cf9" stroke-width="1"/>
      <path id="Path_32271" data-name="Path 32271" d="M714.039-523.428a.976.976,0,0,1-.965-.978.987.987,0,0,1,.994-.954.985.985,0,0,1,.965.982A.976.976,0,0,1,714.039-523.428Z" transform="translate(-78.507 -95.144)" fill="#166cf9" stroke="#166cf9" stroke-width="1"/>
      <path id="Path_32272" data-name="Path 32272" d="M896.062-283.928a1.009,1.009,0,0,1-.988.967,1.019,1.019,0,0,1-.969-.99,1.019,1.019,0,0,1,.992-.967A1.01,1.01,0,0,1,896.062-283.928Z" transform="translate(-241.675 -311.861)" fill="#166cf9" stroke="#166cf9" stroke-width="1"/>
    </g>
    <path id="Path_32273" data-name="Path 32273" d="M840.754-423.55c0-1.364,0-2.729,0-4.093,0-.865.367-1.247,1.23-1.227a14.538,14.538,0,0,1,2.987.178,4.538,4.538,0,0,1,3.585,4.49,6.365,6.365,0,0,1-.52,3.414,4.627,4.627,0,0,1-4.142,2.562c-.673.026-1.348.014-2.022,0a1,1,0,0,1-1.116-1.136C840.746-420.755,840.754-422.152,840.754-423.55Zm2-3.3v6.649c.438,0,.847.021,1.253,0a2.463,2.463,0,0,0,2.242-1.451,4.507,4.507,0,0,0,0-3.775C845.711-426.629,844.434-427.1,842.758-426.85Z" transform="translate(-619.61 4841.819)" fill="#166cf9"/>
    <path id="Path_32274" data-name="Path 32274" d="M744.066-419.192a1,1,0,0,1-.747,1.035.942.942,0,0,1-1.1-.549,11.091,11.091,0,0,1-.515-1.487c-.1-.358-.278-.45-.624-.435-.607.027-1.217.027-1.824,0a.493.493,0,0,0-.6.414c-.113.427-.268.844-.418,1.261a1.015,1.015,0,0,1-1.279.77,1,1,0,0,1-.595-1.365q1.415-4.25,2.856-8.492a.968.968,0,0,1,.946-.733.954.954,0,0,1,.956.715q1.449,4.29,2.893,8.583A1.461,1.461,0,0,1,744.066-419.192Zm-3.185-3.417-.706-2.088-.688,2.088Z" transform="translate(-525.459 4841.73)" fill="#166cf9"/>
  </g>
</svg>
