<svg xmlns="http://www.w3.org/2000/svg" width="73.851" height="62.166" viewBox="0 0 73.851 62.166">
  <g id="Group_25640" data-name="Group 25640" transform="translate(-168.582 -4393.011)">
    <g id="Group_25636" data-name="Group 25636" transform="translate(-529.347 2284.371) rotate(20)">
      <path id="blob" d="M1.12-31.792c3.9,3.071,5.629,8.892,6.461,14.713S8.413-5.436,6.238,0C4.127,5.439-.159,10.557-5.277,11.836c-5.182,1.343-11.195-1.151-16.249-4.03a43.519,43.519,0,0,1-12.6-10.555c-3.582-4.414-6.845-9.915-6.973-15.8-.064-5.949,3.007-12.282,7.868-15.161,4.926-2.943,11.643-2.431,18.04-1.983S-2.718-34.927,1.12-31.792Z" transform="translate(1433.645 1773.164)" fill="rgba(22,108,249,0.23)"/>
    </g>
    <g id="Group_25667" data-name="Group 25667" transform="translate(-1350.051 5024.041)">
      <path id="Path_32275" data-name="Path 32275" d="M1592.484-596.151a4.494,4.494,0,0,1-.542.9,1.64,1.64,0,0,1-1.839.409,1.712,1.712,0,0,1-1.159-1.494,4.679,4.679,0,0,1-.014-.577q0-9.1,0-18.208a3.493,3.493,0,0,0-2-3.384,3.712,3.712,0,0,0-1.358-.357c-.809-.057-1.624-.016-2.5-.016,0,.608.021,1.21,0,1.809a1.764,1.764,0,0,1-2.706,1.455,1.73,1.73,0,0,1-.836-1.526c-.009-.561,0-1.123,0-1.718h-8.085c0,.523,0,1.05,0,1.577a1.791,1.791,0,0,1-1.755,1.94,1.791,1.791,0,0,1-1.8-1.943c0-.516,0-1.032,0-1.577h-8c0,.535,0,1.064,0,1.592a1.79,1.79,0,0,1-1.766,1.929,1.786,1.786,0,0,1-1.785-1.91c-.005-.53,0-1.06,0-1.69a21.32,21.32,0,0,0-3.069.188,3.444,3.444,0,0,0-2.7,3.457c-.012.533,0,1.066,0,1.6q0,12.9,0,25.8a3.492,3.492,0,0,0,2,3.43,3.969,3.969,0,0,0,1.663.381q15.521.033,31.042.012a3.534,3.534,0,0,0,3.665-3.452,2,2,0,0,1,.548-1.364,1.77,1.77,0,0,1,2.84.51c.063.132.118.268.177.4v1.155a.953.953,0,0,0-.079.2,6.9,6.9,0,0,1-4.014,5.41,15.862,15.862,0,0,1-2.213.7h-32.87a.955.955,0,0,0-.2-.08,6.9,6.9,0,0,1-5.41-4.014,15.865,15.865,0,0,1-.7-2.214v-29.316a1.405,1.405,0,0,0,.084-.242,7.014,7.014,0,0,1,3.317-5.008,7.4,7.4,0,0,1,4.322-1.06c.526.017,1.053,0,1.6,0,0-.486.024-.914,0-1.339a1.963,1.963,0,0,1,1.426-2.214h.711a1.964,1.964,0,0,1,1.426,2.213c-.029.436,0,.875,0,1.31h8c0-.457.024-.885,0-1.31A1.963,1.963,0,0,1,1569.3-626h.711a1.964,1.964,0,0,1,1.426,2.213c-.029.436,0,.875,0,1.31h8.084c0-.456.024-.885,0-1.31a1.963,1.963,0,0,1,1.426-2.213h.711a1.964,1.964,0,0,1,1.426,2.214c-.029.436,0,.875,0,1.346.884,0,1.712-.039,2.536.007a6.9,6.9,0,0,1,6.141,4,14.954,14.954,0,0,1,.74,2.3Z" transform="translate(0 0)" fill="#166cf9"/>
      <text id="Week" transform="translate(1552.922 -597.193)" fill="#166cf9" font-size="12" font-family="Nunito-Black, Nunito" font-weight="800"><tspan x="0" y="0">Week</tspan></text>
    </g>
  </g>
</svg>
