<svg xmlns="http://www.w3.org/2000/svg" xmlns:xlink="http://www.w3.org/1999/xlink" width="209.684" height="196" viewBox="0 0 209.684 196">
  <defs>
    <filter id="Polygon_56" x="0" y="0" width="209.684" height="196" filterUnits="userSpaceOnUse">
      <feOffset dy="3" input="SourceAlpha"/>
      <feGaussianBlur stdDeviation="7.5" result="blur"/>
      <feFlood flood-color="#006fff" flood-opacity="0.349"/>
      <feComposite operator="in" in2="blur"/>
      <feComposite in="SourceGraphic"/>
    </filter>
    <radialGradient id="radial-gradient" cx="1.26" cy="-0.031" r="1.349" gradientTransform="translate(45.071 0.004) scale(1.394 1)" gradientUnits="objectBoundingBox">
      <stop offset="0.413" stop-color="#bd3b10"/>
      <stop offset="1" stop-color="#eab600"/>
    </radialGradient>
    <radialGradient id="radial-gradient-2" cx="1.122" cy="-0.265" r="1.944" gradientTransform="translate(70.359 0.001) scale(1.546 1)" xlink:href="#radial-gradient"/>
    <radialGradient id="radial-gradient-3" cx="-0.648" cy="-0.265" r="1.945" gradientTransform="translate(13.021 -0.002) scale(1.136 1)" xlink:href="#radial-gradient"/>
    <radialGradient id="radial-gradient-4" cx="-2.715" cy="-0.26" r="1.945" gradientTransform="translate(28.107 0) scale(1.26 1)" xlink:href="#radial-gradient"/>
    <radialGradient id="radial-gradient-5" cx="0.747" cy="0.108" r="0.721" gradientTransform="translate(344.778 0) scale(3.757 1)" gradientUnits="objectBoundingBox">
      <stop offset="0.159" stop-color="#652101"/>
      <stop offset="0.413" stop-color="#bd3b10"/>
      <stop offset="1" stop-color="#eab600"/>
    </radialGradient>
    <radialGradient id="radial-gradient-6" cx="-0.086" cy="0.045" r="1.229" gradientTransform="translate(-5.901 0.003) scale(0.853 1)" xlink:href="#radial-gradient-5"/>
    <radialGradient id="radial-gradient-7" cx="0.611" cy="0.518" r="0.75" gradientTransform="translate(-7.347 0.003) scale(0.842 1)" xlink:href="#radial-gradient-5"/>
  </defs>
  <g id="lifeplay" transform="translate(17.927 20.406)">
    <g transform="matrix(1, 0, 0, 1, -17.93, -20.41)" filter="url(#Polygon_56)">
      <g id="Polygon_56-2" data-name="Polygon 56" transform="translate(18.34 20.5)" fill="#fff">
        <path d="M110.75,0a33,33,0,0,1,28.539,16.432l24.092,41.5a33,33,0,0,1,0,33.136l-24.092,41.5A33,33,0,0,1,110.75,149H62.25a33,33,0,0,1-28.539-16.432L9.618,91.068a33,33,0,0,1,0-33.136l24.092-41.5A33,33,0,0,1,62.25,0Z" stroke="none"/>
        <path d="M 62.25008392333984 0 C 50.48845672607422 0 39.61582946777344 6.260025024414062 33.71072387695312 16.43182373046875 L 9.618438720703125 57.93182373046875 C 3.670928955078125 68.17665100097656 3.670928955078125 80.82332611083984 9.618408203125 91.06815338134766 L 33.710693359375 132.5681457519531 C 39.61579895019531 142.7399597167969 50.48845672607422 149 62.25008392333984 149 L 110.7499084472656 149 C 122.5115432739258 149 133.3841705322266 142.7399597167969 139.2892761230469 132.5681457519531 L 163.3815612792969 91.06815338134766 C 169.3290710449219 80.82332611083984 169.3290710449219 68.17667388916016 163.3815612792969 57.93184661865234 L 139.2892761230469 16.43182373046875 C 133.3841705322266 6.260040283203125 122.5115432739258 0 110.7499084472656 0 L 62.25008392333984 0 M 62.25008392333984 -1 L 110.7499084472656 -1 C 116.6956787109375 -1 122.5620269775391 0.5681304931640625 127.7147598266602 3.534866333007812 C 132.8674774169922 6.501602172851562 137.1689300537109 10.78768920898438 140.1541137695312 15.92976379394531 L 164.2463989257812 57.42977905273438 C 167.2530059814453 62.60877990722656 168.8421936035156 68.51156616210938 168.8421936035156 74.5 C 168.8421936035156 80.48843383789062 167.2530059814453 86.39122009277344 164.2463989257812 91.57022094726562 L 140.1541137695312 133.0702209472656 C 137.1689605712891 138.2123107910156 132.8674774169922 142.4983978271484 127.7147598266602 145.4651336669922 C 122.5620269775391 148.4318695068359 116.6956787109375 150 110.7499084472656 150 L 62.25008392333984 150 C 56.30432891845703 150 50.43795776367188 148.4318695068359 45.28524017333984 145.4651336669922 C 40.13250732421875 142.4983978271484 35.83102416992188 138.2123107910156 32.84587097167969 133.0702209472656 L 8.753585815429688 91.57022094726562 C 5.746994018554688 86.39122009277344 4.157806396484375 80.48843383789062 4.157806396484375 74.49997711181641 C 4.157806396484375 68.51154327392578 5.747024536132812 62.60874176025391 8.75360107421875 57.42976379394531 L 32.84588623046875 15.92976379394531 C 35.83103942871094 10.78768920898438 40.13252258300781 6.501602172851562 45.28524017333984 3.534866333007812 C 50.43798065185547 0.5681304931640625 56.30432891845703 -1 62.25008392333984 -1 Z" stroke="none" fill="rgba(9,89,222,0.56)"/>
      </g>
    </g>
    <g id="logo_-header" data-name="logo -header" transform="translate(18.838 62.002)">
      <g id="Group_765" data-name="Group 765" transform="translate(27.554 6.115)">
        <path id="Path_12614" data-name="Path 12614" d="M1108.961,113.007V100.09h1.4v11.654h6.6v1.264Z" transform="translate(-1108.961 -100.02)" fill="#0b3360"/>
        <path id="Path_12615" data-name="Path 12615" d="M1129.961,113.007V100.09h1.4v12.917Z" transform="translate(-1115.219 -100.02)" fill="#0b3360"/>
        <path id="Path_12616" data-name="Path 12616" d="M1144.865,101.283v4.774h5.686v1.264h-5.686v5.686h-1.4V100.09h8v1.264h-6.6Z" transform="translate(-1119.242 -100.02)" fill="#0b3360"/>
        <path id="Path_12617" data-name="Path 12617" d="M1164.661,113.007V100.09h8v1.264h-6.669v4.563h5.686v1.264h-5.686v4.633h6.669v1.264Z" transform="translate(-1125.559 -100.02)" fill="#0b3360"/>
        <path id="Path_12618" data-name="Path 12618" d="M1190.845,108.063h-2.457v4.844h-2.528V99.99h4.985a3.988,3.988,0,0,1,4.282,4A4.041,4.041,0,0,1,1190.845,108.063Zm-.071-5.757h-2.386v3.51h2.386a1.793,1.793,0,1,0,.211-3.58A.544.544,0,0,1,1190.775,102.307Z" transform="translate(-1131.876 -99.99)" fill="url(#radial-gradient)"/>
        <path id="Path_12619" data-name="Path 12619" d="M1208.261,113.007V100.09h2.527v10.671h5.827v2.246Z" transform="translate(-1138.551 -100.02)" fill="url(#radial-gradient-2)"/>
        <path id="Path_12620" data-name="Path 12620" d="M1236.066,113.007l-.772-2.317h-4.563l-.772,2.317h-2.6l4.7-12.917h1.965l4.7,12.917Zm-2.949-9.126-1.615,4.7h3.229Z" transform="translate(-1144.242 -100.02)" fill="url(#radial-gradient-3)"/>
        <path id="Path_12621" data-name="Path 12621" d="M1255.449,107.642v5.265h-2.527v-5.265l-3.861-7.652h2.738l2.387,5.195,2.387-5.195h2.738Z" transform="translate(-1150.709 -99.99)" fill="url(#radial-gradient-4)"/>
      </g>
      <g id="Group_838" data-name="Group 838">
        <path id="Path_12622" data-name="Path 12622" d="M1062.374,107.591V90.8c0-1.475.057-2.325,0-2.836v-.851h-.056a4.962,4.962,0,0,0-.908.113,2.883,2.883,0,0,0-1.021.51c-.057,0-.057.057-.113.113a4.52,4.52,0,0,0-1.7,3.743v16.165a4.764,4.764,0,0,0,1.7,3.743l.113.113a4.3,4.3,0,0,0,1.021.51,4.407,4.407,0,0,0,.908.113h.056v-.851c.057-.51,0-1.361,0-2.836Z" transform="translate(-1058.571 -87.059)" fill="#0b3360"/>
        <g id="Group_766" data-name="Group 766" transform="translate(4.945 0.123)">
          <path id="Path_12623" data-name="Path 12623" d="M1067.29,90.692v19.965l.114.227h2.1V92.507s-.907-3.914,3.8-2.722a2.456,2.456,0,0,1,.283.057h0l-.227-.17-2.723-1.758h0s-.17-.113-.284-.17c-.057-.057-.114-.057-.17-.113l-.057-.057a2.5,2.5,0,0,0-.907-.34,2.04,2.04,0,0,0-.624.113h-.114c-.056,0-.056.057-.113.057h0l-.057.057h0a2.18,2.18,0,0,0-.964,1.928v.4h0" transform="translate(-1067.29 -87.232)" fill="url(#radial-gradient-5)"/>
        </g>
        <path id="Path_12624" data-name="Path 12624" d="M1085.753,103.944a5.638,5.638,0,0,0-.964-.624c-.681-.454-1.361-.851-2.042-1.3h0l.51.51a2.521,2.521,0,0,1,.681,1.985,4.24,4.24,0,0,1-2.155,2.722l-1.021.681v-.057c-.057.057-.17.113-.227.17l-2.5,1.872c-1.361.964-2.893,1.815-4.254,2.779-.624.454-2.212,1.531-2.326,1.588l-1.872,1.248h0c-.567.284-2.269.908-2.212-1.078v2.439h0a1.421,1.421,0,0,0,.454,1.021h0a1.6,1.6,0,0,0,2.212.284c1.134-.737,2.439-1.588,3.516-2.325,2.439-1.645,4.878-3.346,7.317-4.991l4.935-3.4a2.252,2.252,0,0,0,.454-3.12A3.959,3.959,0,0,1,1085.753,103.944Z" transform="translate(-1062.381 -93.508)" fill="url(#radial-gradient-6)"/>
        <path id="Path_12625" data-name="Path 12625" d="M1083.384,96.034a4.357,4.357,0,0,0-.51-.51.782.782,0,0,0-.227-.17h0c-.057-.057-.114-.057-.17-.113l-.057-.057c-.057-.057-.113-.057-.17-.113a.055.055,0,0,1-.057-.057c-.057-.057-.17-.057-.227-.113l-.737-.51-7.317-4.708-.227-.17-2.722-1.758-.057-.057h0l-.056-.057c-.057-.057-.113-.057-.17-.113s-.113-.057-.17-.113l-.057-.057a2.5,2.5,0,0,0-.908-.34,2.038,2.038,0,0,0-.624.113h-.114c-.057,0-.057.057-.113.057h0a.056.056,0,0,0-.057.057h0a2.179,2.179,0,0,0-.964,1.928v1.078h0v3.4c.227-1.475,1.815-1.475,2.212-1.418h.057l6.806,4.311,4.367,2.779a1.5,1.5,0,0,1,.284.34h0v.057a.056.056,0,0,0,.057.057h0v.057h0v.057h0v.057h0V100h0v.057h0v.057h0v.057h0c0,.057,0,.057-.057.113h0v.057h0v.057h0a.056.056,0,0,1-.057.057h0c0,.057-.057.057-.057.113-.057.113-.17.227-.227.34h0v.057l1.021-.681c.567-.4,1.985-1.248,2.156-2.723A6.242,6.242,0,0,0,1083.384,96.034Z" transform="translate(-1062.508 -87.016)" fill="url(#radial-gradient-7)"/>
      </g>
    </g>
  </g>
</svg>
