<svg xmlns="http://www.w3.org/2000/svg" xmlns:xlink="http://www.w3.org/1999/xlink" width="213.878" height="201" viewBox="0 0 213.878 201">
  <defs>
    <filter id="Polygon_57" x="0" y="0" width="213.878" height="201" filterUnits="userSpaceOnUse">
      <feOffset dy="3" input="SourceAlpha"/>
      <feGaussianBlur stdDeviation="7.5" result="blur"/>
      <feFlood flood-color="#006fff" flood-opacity="0.349"/>
      <feComposite operator="in" in2="blur"/>
      <feComposite in="SourceGraphic"/>
    </filter>
    <linearGradient id="linear-gradient" x1="-58.342" y1="-13.051" x2="-58.342" y2="-13.064" gradientUnits="objectBoundingBox">
      <stop offset="0" stop-color="#cb6500"/>
      <stop offset="1" stop-color="#ffcb00"/>
    </linearGradient>
  </defs>
  <g id="maxplay" transform="translate(18.11 20.919)">
    <g transform="matrix(1, 0, 0, 1, -18.11, -20.92)" filter="url(#Polygon_57)">
      <g id="Polygon_57-2" data-name="Polygon 57" transform="translate(18.44 20.5)" fill="#fff">
        <path d="M113.653,0a33,33,0,0,1,28.612,16.557l25.286,44a33,33,0,0,1,0,32.885l-25.286,44A33,33,0,0,1,113.653,154H63.347a33,33,0,0,1-28.612-16.557l-25.286-44a33,33,0,0,1,0-32.885l25.286-44A33,33,0,0,1,63.347,0Z" stroke="none"/>
        <path d="M 63.34677124023438 0 C 51.53334045410156 0 40.62101745605469 6.314849853515625 34.73486328125 16.55743408203125 L 9.449142456054688 60.55743408203125 C 3.598358154296875 70.73843383789062 3.598358154296875 83.26154327392578 9.449142456054688 93.44254302978516 L 34.73483276367188 137.4425659179688 C 40.62101745605469 147.6851501464844 51.53331756591797 154 63.34677124023438 154 L 113.6532135009766 154 C 125.466667175293 154 136.3789672851562 147.6851501464844 142.26513671875 137.4425659179688 L 167.5508575439453 93.44256591796875 C 173.4016265869141 83.26156616210938 173.4016265869141 70.73843383789062 167.5508575439453 60.55743408203125 L 142.26513671875 16.55743408203125 C 136.3789672851562 6.314849853515625 125.466667175293 0 113.6532287597656 0 L 63.34677124023438 0 M 63.34677124023438 -1 L 113.6532287597656 -1 C 119.6251831054688 -1 125.5139007568359 0.5810394287109375 130.6827697753906 3.572219848632812 C 135.8516540527344 6.563385009765625 140.1565856933594 10.88133239746094 143.1321716308594 16.05917358398438 L 168.4178771972656 60.05917358398438 C 171.3755798339844 65.20589447021484 172.9389343261719 71.06393432617188 172.9389343261719 77 C 172.9389343261719 82.93606567382812 171.3755798339844 88.79410552978516 168.4178771972656 93.94082641601562 L 143.1321716308594 137.9408264160156 C 140.1565856933594 143.1186981201172 135.8516540527344 147.4366149902344 130.6827697753906 150.4277801513672 C 125.5139007568359 153.4189605712891 119.6251678466797 155 113.6532135009766 155 L 63.34677124023438 155 C 57.37481689453125 155 51.48607635498047 153.4189605712891 46.31721496582031 150.4277801513672 C 41.14834594726562 147.4366149902344 36.84339904785156 143.1186981201172 33.86781311035156 137.9408264160156 L 8.582122802734375 93.94080352783203 C 5.624404907226562 88.79409027099609 4.061050415039062 82.93604278564453 4.061050415039062 76.99997711181641 C 4.061050415039062 71.06393432617188 5.624404907226562 65.20589447021484 8.582122802734375 60.05917358398438 L 33.86784362792969 16.05917358398438 C 36.84339904785156 10.88133239746094 41.14834594726562 6.563385009765625 46.31721496582031 3.572219848632812 C 51.48609924316406 0.5810394287109375 57.37481689453125 -1 63.34677124023438 -1 Z" stroke="none" fill="rgba(9,89,222,0.56)"/>
      </g>
    </g>
    <g id="Max_Play" data-name="Max Play" transform="translate(26.11 68.995)">
      <path id="Shape_2" data-name="Shape 2" d="M1520.666,222.8a7.818,7.818,0,0,1-4.471,3.589,10.078,10.078,0,0,1-3.471.647,11.436,11.436,0,0,1-6.531-1.647,8.34,8.34,0,0,1-2.118-1.942,5.573,5.573,0,0,1-1.177-2.824,5.82,5.82,0,0,1,1.471-4.471,8.816,8.816,0,0,1,3.647-2.412,16.232,16.232,0,0,1,1.589-.471c.647-.118,1.235-.177,1.883-.235a11.308,11.308,0,0,1,6.531,1.647,8.344,8.344,0,0,1,2.118,1.941,6.3,6.3,0,0,1,1.177,2.824A5.4,5.4,0,0,1,1520.666,222.8Zm-2.236-6.119a5.6,5.6,0,0,0-1.647-1.471,9.164,9.164,0,0,0-2.177-1,11.6,11.6,0,0,0-2.824-.353,9.687,9.687,0,0,0-2.765.471,6.485,6.485,0,0,0-3.589,2.706,4.068,4.068,0,0,0-.589,2.471,4.384,4.384,0,0,0,.883,2.236,6.8,6.8,0,0,0,1.647,1.53,9.39,9.39,0,0,0,7.707.824,6.218,6.218,0,0,0,2.059-1.059,4.724,4.724,0,0,0,2.118-4.118,4.312,4.312,0,0,0-.824-2.236Zm-6.236,4.53a2.1,2.1,0,0,1-1.236.647,1.508,1.508,0,0,1-1.471-.765,1.147,1.147,0,0,1-.059-.765,1.788,1.788,0,0,1,.765-.706c.883-.647,1.647-1.235,2.589-1.883l-2.295-1.412c-.235-.118-.588-.294-.647-.588-.059-.588,1-.883,1.647-.706a2.389,2.389,0,0,1,.53.294c1,.529,2.059,1.118,3,1.647.294.176.647.294.765.588.235.471-.059.765-.353,1C1514.371,219.45,1513.312,220.333,1512.194,221.215Z" transform="translate(-1396.528 -212.391)" stroke="#300" stroke-width="0.2" fill="url(#linear-gradient)"/>
      <path id="m" d="M1329.6,224.477l-2-6-1.942,6h-3.53l4.06-12.531h3.354l2.53,7.707,7.531-7.707h3.354l-4.059,12.531h-3.53l1.942-6-5.883,6Z" transform="translate(-1322.127 -211.946)"/>
      <path id="a" d="M1359.629,224.477l-.412-1.706h-7.3l-1.53,1.706h-3.765l10.708-12.531h3.53l2.589,12.531Zm-1.824-8.707-3.53,4.118h4.472Z" transform="translate(-1332.213 -211.946)"/>
      <path id="x" d="M1385.965,211.946l-5.06,4-2.471-4h-4.648l3.824,6.236-7.884,6.236h4.648l5.06-4,2.471,4h4.648l-3.883-6.236,7.942-6.236Z" transform="translate(-1341.722 -211.946)"/>
      <path id="p" d="M1416.006,217.223c.235,0,.353-.059.412-.235l.588-1.824a.208.208,0,0,0-.235-.235H1406l.941-2.883h12.826a.823.823,0,0,1,.53.176,1.378,1.378,0,0,1,.411.412,1.757,1.757,0,0,1,.235.588,1,1,0,0,1,0,.588l-1.294,4a2.929,2.929,0,0,1-.588,1.118,2.878,2.878,0,0,1-.765.706,3.068,3.068,0,0,1-.883.412,4.54,4.54,0,0,1-.882.118h-8.766l-1.412,4.412h-3.53l2.353-7.3Z" transform="translate(-1355.349 -211.987)"/>
      <path id="l" d="M1441.829,225.077l.941-2.883H1433.3l3.118-9.649h-3.53l-4.059,12.531Z" transform="translate(-1366.052 -212.193)"/>
      <path id="a-2" d="M1465.229,225.178l-.412-1.706h-7.3l-1.53,1.706h-3.765l10.708-12.531h3.53l2.589,12.531Zm-1.765-8.707-3.53,4.118h4.471Z" transform="translate(-1375.685 -212.234)"/>
      <path id="y" d="M1478.027,212.546h4.53l2.589,4,5.177-4h4.53l-8.943,7.06-1.765,5.471h-3.53l1.765-5.471Z" transform="translate(-1386.307 -212.193)"/>
    </g>
  </g>
</svg>
