<svg xmlns="http://www.w3.org/2000/svg" xmlns:xlink="http://www.w3.org/1999/xlink" width="195.693" height="184" viewBox="0 0 195.693 184">
  <defs>
    <filter id="Polygon_55" x="0" y="0" width="195.693" height="184" filterUnits="userSpaceOnUse">
      <feOffset dy="3" input="SourceAlpha"/>
      <feGaussianBlur stdDeviation="7.5" result="blur"/>
      <feFlood flood-color="#006fff" flood-opacity="0.349"/>
      <feComposite operator="in" in2="blur"/>
      <feComposite in="SourceGraphic"/>
    </filter>
  </defs>
  <g id="Group_18544" data-name="Group 18544" transform="translate(18.488 20.308)">
    <g transform="matrix(1, 0, 0, 1, -18.49, -20.31)" filter="url(#Polygon_55)">
      <g id="Polygon_55-2" data-name="Polygon 55" transform="translate(18.35 20.5)" fill="#fff">
        <path d="M100.246,0a33,33,0,0,1,28.542,16.437l20.6,35.5a33,33,0,0,1,0,33.126l-20.6,35.5A33,33,0,0,1,100.246,137H58.754a33,33,0,0,1-28.542-16.437l-20.6-35.5a33,33,0,0,1,0-33.126l20.6-35.5A33,33,0,0,1,58.754,0Z" stroke="none"/>
        <path d="M 58.75411224365234 0 C 46.99033355712891 0 36.11603546142578 6.262313842773438 30.21171569824219 16.43705749511719 L 9.611328125 51.93708038330078 C 3.667892456054688 62.17923736572266 3.667877197265625 74.82075500488281 9.611328125 85.06294250488281 L 30.21168518066406 120.5629196166992 C 36.11603546142578 130.7376861572266 46.99031066894531 137 58.75411224365234 137 L 100.2458724975586 137 C 112.0096740722656 137 122.8839569091797 130.7376861572266 128.7882995605469 120.5629196166992 L 149.3886566162109 85.06291961669922 C 155.3321075439453 74.82075500488281 155.3321075439453 62.17923736572266 149.3886566162109 51.93708038330078 L 128.7882995605469 16.43705749511719 C 122.8839569091797 6.262313842773438 112.0096740722656 0 100.2458953857422 0 L 58.75411224365234 0 M 58.75411224365234 -1 L 100.2458953857422 -1 C 106.1927490234375 -1 112.0600280761719 0.5686798095703125 117.2134323120117 3.536422729492188 C 122.3668365478516 6.504180908203125 126.6684341430664 10.79158020019531 129.6532135009766 15.93515777587891 L 150.2535705566406 51.4351806640625 C 153.2581329345703 56.61282348632812 154.8462524414062 62.51374053955078 154.8462524414062 68.5 C 154.8462524414062 74.48625946044922 153.2581329345703 80.38717651367188 150.2535705566406 85.5648193359375 L 129.6532135009766 121.0648193359375 C 126.6684341430664 126.2083969116211 122.3668365478516 130.4958190917969 117.2134323120117 133.4635772705078 C 112.0600128173828 136.4313201904297 106.1927337646484 138 100.2458724975586 138 L 58.75411224365234 138 C 52.8072509765625 138 46.93997192382812 136.4313201904297 41.78655242919922 133.4635772705078 C 36.63315582275391 130.4958190917969 32.33155059814453 126.2083969116211 29.34677124023438 121.0648193359375 L 8.746414184570312 85.56483459472656 C 5.741851806640625 80.38719940185547 4.153732299804688 74.48628234863281 4.15374755859375 68.5 C 4.15374755859375 62.51374053955078 5.741867065429688 56.61282348632812 8.746414184570312 51.4351806640625 L 29.34678649902344 15.93515777587891 C 32.33155059814453 10.79160308837891 36.63317108154297 6.504180908203125 41.78657531738281 3.536422729492188 C 46.93997192382812 0.5686798095703125 52.8072509765625 -1 58.75411224365234 -1 Z" stroke="none" fill="rgba(9,89,222,0.56)"/>
      </g>
    </g>
    <g id="POCN_" data-name="POCN " transform="translate(33.958 58.357)">
      <g id="Group_75" data-name="Group 75" transform="translate(0 0)">
        <path id="Path_14" data-name="Path 14" d="M1121.94-22.247l-1.725,3.4a5.035,5.035,0,0,1,2.225,6.719,5.035,5.035,0,0,1-6.719,2.224,5.034,5.034,0,0,1-2.224-6.719,5.259,5.259,0,0,1,2.224-2.225l-1.725-3.4a8.821,8.821,0,0,0-3.9,11.849,8.821,8.821,0,0,0,11.849,3.9,8.82,8.82,0,0,0,3.9-11.849A8.775,8.775,0,0,0,1121.94-22.247Z" transform="translate(-1093.43 25.016)" fill="#00b4ee"/>
        <path id="Path_15" data-name="Path 15" d="M1122.965-8.705a1.512,1.512,0,0,0,1.5,1.5,1.511,1.511,0,0,0,1.5-1.5,1.511,1.511,0,0,0-1.5-1.5,1.313,1.313,0,0,0-1.044.454A1.255,1.255,0,0,0,1122.965-8.705Z" transform="translate(-1099.903 19.373)" fill="#97bf26"/>
        <path id="Path_16" data-name="Path 16" d="M1126.265-27.457h-7.4l3.723,7.354Z" transform="translate(-1097.982 27.457)" fill="#97bf26"/>
        <path id="Path_17" data-name="Path 17" d="M1083.3-11.549h2.86c3.813,0,6.855-2.043,6.855-5.993v-.045c0-3.45-2.451-5.857-6.492-5.857h-6.946V-6.464h3.723Zm0-8.535h2.906c1.861,0,3.042.908,3.042,2.588v.045a2.638,2.638,0,0,1-2.951,2.588h-2.951v-5.221Z" transform="translate(-1079.574 25.576)" fill="#00b4ee"/>
        <path id="Path_18" data-name="Path 18" d="M1156.247-9.877a5.06,5.06,0,0,1-4.949-5.357v-.046a5.047,5.047,0,0,1,4.949-5.311,6.374,6.374,0,0,1,4.358,1.906l2.361-2.724a8.84,8.84,0,0,0-6.719-2.633,8.629,8.629,0,0,0-8.853,8.807v.045a8.577,8.577,0,0,0,8.716,8.716,8.651,8.651,0,0,0,6.946-3.042L1160.7-11.92A5.89,5.89,0,0,1,1156.247-9.877Z" transform="translate(-1111.348 25.857)" fill="#00b4ee"/>
        <path id="Path_19" data-name="Path 19" d="M1193.981-23.443V-13l-7.945-10.442h-3.45V-6.464h3.677v-10.8l8.217,10.8h3.178V-23.443Z" transform="translate(-1127.836 25.576)" fill="#00b4ee"/>
      </g>
      <g id="Group_76" data-name="Group 76" transform="translate(76.291 3.003)">
        <path id="Path_20" data-name="Path 20" d="M1232.829-16.314h0v-5.493h-4.222v5.493h-5.493v4.222h9.715Z" transform="translate(-1223.114 21.807)" fill="#00b4ee"/>
        <path id="Path_21" data-name="Path 21" d="M1243.165-11.472h-9.716V-7.25h0v5.493h4.222V-7.25h5.493Z" transform="translate(-1227.956 16.965)" fill="#97bf26"/>
      </g>
      <path id="Path_14645" data-name="Path 14645" d="M1246.681,5.531H1247V4.351h.408V4.078h-1.09v.273h.409v1.18Zm2.134,0h.318l-.091-1.453h-.408l-.137.5c-.045.181-.09.363-.136.5h0c-.045-.181-.091-.363-.136-.5l-.136-.5h-.454l-.09,1.453h.318l.045-.545a2.6,2.6,0,0,1,.045-.59h0c.046.182.091.409.136.545l.136.545h.272l.182-.545c.045-.182.136-.363.182-.545h0v.59Z" transform="translate(-1157.694 12.683)" fill="#00b4ee"/>
    </g>
  </g>
</svg>
