<svg xmlns="http://www.w3.org/2000/svg" width="77.418" height="62.166" viewBox="0 0 77.418 62.166">
  <g id="Group_25638" data-name="Group 25638" transform="translate(-168.582 -4393.012)">
    <g id="Group_25636" data-name="Group 25636" transform="translate(-529.347 2284.371) rotate(20)">
      <path id="blob" d="M1.12-31.792c3.9,3.071,5.629,8.892,6.461,14.713S8.413-5.436,6.238,0C4.127,5.439-.159,10.557-5.277,11.836c-5.182,1.343-11.195-1.151-16.249-4.03a43.519,43.519,0,0,1-12.6-10.555c-3.582-4.414-6.845-9.915-6.973-15.8-.064-5.949,3.007-12.282,7.868-15.161,4.926-2.943,11.643-2.431,18.04-1.983S-2.718-34.927,1.12-31.792Z" transform="translate(1433.645 1773.164)" fill="rgba(22,108,249,0.23)"/>
    </g>
    <g id="Group_25635" data-name="Group 25635" transform="translate(-678.072 4883.71)">
      <path id="Path_32255" data-name="Path 32255" d="M936.955-424.386l-5.517,5.519c-.606.606-1.211,1.214-1.821,1.817a1.275,1.275,0,0,1-1.456.379,1.286,1.286,0,0,1-.829-1.255,21.261,21.261,0,0,0-4.3-11.981,28.565,28.565,0,0,0-5.568-5.309,14.245,14.245,0,0,1-4.26-18.09c.056-.115.1-.234.156-.35-2.79-1.272-3.973-2.976-3.638-5.212a4.68,4.68,0,0,1,4.043-3.994c2.235-.3,3.98.928,5.061,3.444a38.226,38.226,0,0,1,5.073-1.37,13.764,13.764,0,0,1,13.337,5.539c2.453,3.12,5.1,6,8.748,7.774a21.65,21.65,0,0,0,8.484,2.212,1.4,1.4,0,0,1,1.461.9,1.431,1.431,0,0,1-.552,1.562c-2.259,2.251-4.507,4.512-6.77,6.758-.3.3-.417.5-.17.945a7.962,7.962,0,0,1-1.234,9.821,8,8,0,0,1-9.915,1.036C937.217-424.282,937.14-424.307,936.955-424.386Zm-10.847-5.6,16.482-16.484c-3.173-1.952-5.424-4.885-7.812-7.709a11.057,11.057,0,0,0-11.532-3.893,10.974,10.974,0,0,0-8.692,8.512,11.021,11.021,0,0,0,3.727,11.659C921.122-435.455,924.131-433.209,926.108-429.987Zm25.458-12.78c-2.019-.7-4.1-1.437-6.205-2.126a.954.954,0,0,0-.781.249q-8.343,8.3-16.664,16.629a.8.8,0,0,0-.174,1.035c.527,1.37,1.006,2.759,1.458,4.155.208.641.311,1.315.459,1.962Zm-5.218,9.245-7.293,7.289a5.289,5.289,0,0,0,6.337-.883A5.326,5.326,0,0,0,946.348-433.522ZM916.36-458.255a2.057,2.057,0,0,0-2.038-2.058,2.06,2.06,0,0,0-2.059,2.038,2.058,2.058,0,0,0,2.04,2.055A2.041,2.041,0,0,0,916.36-458.255Z" transform="translate(-31.929 -23.61)" fill="#166cf9"/>
      <path id="Path_32256" data-name="Path 32256" d="M884.09-291.1a16.036,16.036,0,0,1-14.953-13.951,14.051,14.051,0,0,1-.115-1.682c-.032-1.051.391-1.623,1.2-1.659s1.264.5,1.375,1.527a21.35,21.35,0,0,0,.49,3.324,13.417,13.417,0,0,0,12.381,9.877c.24.017.484.013.721.048a1.173,1.173,0,0,1,1.118,1.241,1.17,1.17,0,0,1-1.094,1.265A7.417,7.417,0,0,1,884.09-291.1Z" transform="translate(4 -150.989)" fill="#166cf9"/>
      <path id="Path_32257" data-name="Path 32257" d="M1054.027-492.95a16.055,16.055,0,0,1,15.056,13.627,21.4,21.4,0,0,1,.168,2.159c.025.915-.438,1.46-1.2,1.493-.8.035-1.28-.505-1.369-1.449a22.382,22.382,0,0,0-.378-3.02,13.428,13.428,0,0,0-12.578-10.248,3.271,3.271,0,0,1-.946-.133,1.151,1.151,0,0,1-.8-1.324,1.15,1.15,0,0,1,1.088-1.1A8.43,8.43,0,0,1,1054.027-492.95Z" transform="translate(-146.713 4)" fill="#166cf9"/>
      <path id="Path_32258" data-name="Path 32258" d="M904.872-296.644a10.56,10.56,0,0,1-10.044-10.1c-.023-1.022.419-1.612,1.232-1.643s1.286.495,1.344,1.534a7.948,7.948,0,0,0,7.554,7.637c1.1.051,1.648.5,1.624,1.342S905.977-296.618,904.872-296.644Z" transform="translate(-16.272 -150.99)" fill="#166cf9"/>
      <path id="Path_32259" data-name="Path 32259" d="M1063.7-456.807a1.275,1.275,0,0,1-1.251,1.409c-.766.024-1.276-.47-1.316-1.388a7.92,7.92,0,0,0-6.157-7.574c-.573-.121-1.163-.167-1.747-.231a1.27,1.27,0,0,1-1.3-1.333,1.3,1.3,0,0,1,1.488-1.231,10.343,10.343,0,0,1,7.193,3.088A10.5,10.5,0,0,1,1063.7-456.807Z" transform="translate(-146.691 -16.271)" fill="#166cf9"/>
    </g>
  </g>
</svg>
