<svg xmlns="http://www.w3.org/2000/svg" width="84.228" height="62.166" viewBox="0 0 84.228 62.166">
  <g id="Group_25639" data-name="Group 25639" transform="translate(-168.582 -4393.012)">
    <g id="Group_25636" data-name="Group 25636" transform="translate(-529.347 2284.371) rotate(20)">
      <path id="blob" d="M1.12-31.792c3.9,3.071,5.629,8.892,6.461,14.713S8.413-5.436,6.238,0C4.127,5.439-.159,10.557-5.277,11.836c-5.182,1.343-11.195-1.151-16.249-4.03a43.519,43.519,0,0,1-12.6-10.555c-3.582-4.414-6.845-9.915-6.973-15.8-.064-5.949,3.007-12.282,7.868-15.161,4.926-2.943,11.643-2.431,18.04-1.983S-2.718-34.927,1.12-31.792Z" transform="translate(1433.645 1773.164)" fill="rgba(22,108,249,0.23)"/>
    </g>
    <g id="Group_25668" data-name="Group 25668" transform="translate(-853.802 5390.294)">
      <path id="Path_32276" data-name="Path 32276" d="M1106.612-967.792c-.282.49-.574.974-.844,1.471q-3.473,6.395-6.936,12.8a1.1,1.1,0,0,1-1.019.652c-.2,0-.393,0-.589,0h-37.617v.682c0,3.75,0-3.363,0,.388a4.9,4.9,0,0,1-.023.641,1.033,1.033,0,0,1-.977.9,1.021,1.021,0,0,1-1.076-.778,3.886,3.886,0,0,1-.064-.85c0-14.555,0-18.246,0-32.8v-.77h-3.571v36.029c0,.125,0,.25,0,.375,0,.747-.25,1.174-.764,1.32-.555.158-.969-.062-1.379-.733v-38.4a1.188,1.188,0,0,1,1.06-.769c1.91,0,3.821-.007,5.731.006a.988.988,0,0,1,1.054,1.041c.026.838.01,1.678.012,2.517,0,.2,0,.407,0,.637h.735q18.507,0,37.014-.014a1.68,1.68,0,0,1,1.683,1.017c2.362,4.419,4.762,8.819,7.152,13.223.125.23.28.444.421.665Zm-46.98,12.778h.535q15.293,0,30.586.01a.726.726,0,0,0,.732-.46q3.324-6.139,6.676-12.265a.741.741,0,0,0,.006-.824q-3.384-6.138-6.729-12.3a.761.761,0,0,0-.792-.448q-15.213.016-30.425.008h-.588Zm34.065-26.265c.132.262.22.448.318.628,2.114,3.884,4.221,7.772,6.354,11.646a1.587,1.587,0,0,1,.006,1.7c-2.132,3.875-4.238,7.763-6.352,11.647-.1.18-.187.365-.314.611,1.14,0,2.19.012,3.239-.014a.628.628,0,0,0,.423-.309q3.392-6.224,6.75-12.466a.769.769,0,0,0,.017-.624q-3.365-6.269-6.77-12.515a.579.579,0,0,0-.383-.291C1095.921-981.289,1094.856-981.279,1093.7-981.279Z" fill="#166cf9"/>
      <path id="Path_32278" data-name="Path 32278" d="M1236.644-839.339c0-1.323-.011-2.495,0-3.666a1.046,1.046,0,0,1,.984-1.071,1.077,1.077,0,0,1,1.124.933,3.272,3.272,0,0,1,.029.533q.021,2.864.038,5.729c0,.232.009.464,0,.7a1.17,1.17,0,0,1-.809,1.192,1.146,1.146,0,0,1-1.344-.521c-.809-1.154-1.6-2.318-2.4-3.477-.1-.139-.2-.27-.391-.515,0,1.251.006,2.367,0,3.484a1.066,1.066,0,0,1-.851,1.136,1.038,1.038,0,0,1-1.278-1.022c-.02-2.374-.016-4.747,0-7.121a.981.981,0,0,1,.768-.98,1.026,1.026,0,0,1,1.208.459c.827,1.185,1.645,2.376,2.466,3.564C1236.308-839.812,1236.432-839.639,1236.644-839.339Z" transform="translate(-154.268 -123.045)" fill="#166cf9"/>
      <path id="Path_32279" data-name="Path 32279" d="M1129.627-838.535c.515.587,1,1.13,1.476,1.684a1.1,1.1,0,0,1,0,1.653,1.1,1.1,0,0,1-1.6-.234,23.55,23.55,0,0,0-1.847-1.929c0,.4.008.8,0,1.2-.018.757-.418,1.205-1.064,1.2a1.068,1.068,0,0,1-1.072-1.2q-.017-3.4,0-6.794a1.091,1.091,0,0,1,1.237-1.213,17.075,17.075,0,0,1,2.083.039,2.937,2.937,0,0,1,2.61,2.389,2.89,2.89,0,0,1-1.581,3.06C1129.8-838.643,1129.744-838.6,1129.627-838.535Zm-1.961-3.521c0,.308,0,.534,0,.76,0,.848.251,1.022,1.08.76.017-.005.042,0,.05-.014.179-.238.482-.47.5-.718a.881.881,0,0,0-.484-.649A4.193,4.193,0,0,0,1127.666-842.056Z" transform="translate(-63.219 -122.961)" fill="#166cf9"/>
      <path id="Path_32280" data-name="Path 32280" d="M1200.71-917.355a4.214,4.214,0,0,1-4.237-4.2,4.237,4.237,0,0,1,4.2-4.247,4.263,4.263,0,0,1,4.249,4.211A4.236,4.236,0,0,1,1200.71-917.355Zm-.084-2.144a2.085,2.085,0,0,0,2.152-2.047,2.113,2.113,0,0,0-2.048-2.111,2.086,2.086,0,0,0-2.114,2.033A2.065,2.065,0,0,0,1200.626-919.5Z" transform="translate(-124.046 -52.999)" fill="#166cf9"/>
      <path id="Path_32281" data-name="Path 32281" d="M1270.833-920.681c.439.5.843.952,1.234,1.413a1.082,1.082,0,0,1,0,1.576,1.082,1.082,0,0,1-1.6-.163c-.232-.247-.448-.508-.672-.762s-.446-.5-.779-.874c0,.392.008.647,0,.9a1.087,1.087,0,0,1-1.1,1.179,1.05,1.05,0,0,1-1.034-1.177q-.011-3.048,0-6.1a1.03,1.03,0,0,1,1-1.155,13.21,13.21,0,0,1,2.134.038,2.685,2.685,0,0,1,2.333,2.055,2.682,2.682,0,0,1-1.242,2.9C1271.029-920.8,1270.953-920.756,1270.833-920.681Zm-1.79-1.736a9.163,9.163,0,0,0,1.138-.5.584.584,0,0,0-.046-.509,7.362,7.362,0,0,0-1.092-.39Z" transform="translate(-184.384 -52.944)" fill="#166cf9"/>
      <path id="Path_32282" data-name="Path 32282" d="M1184.531-838.234v1.374c.556,0,1.1,0,1.646,0,.78.005,1.279.41,1.3,1.047.017.656-.5,1.092-1.3,1.095-.875,0-1.75.008-2.624,0a1.071,1.071,0,0,1-1.179-1.162q-.022-3.4,0-6.8a1.06,1.06,0,0,1,1.155-1.182c.928-.02,1.857-.018,2.785,0a1.076,1.076,0,0,1,1.165,1.063,1.088,1.088,0,0,1-1.167,1.068c-.568.019-1.138,0-1.753,0v1.354c.484,0,.96-.007,1.436,0,.769.013,1.271.448,1.266,1.085s-.493,1.049-1.279,1.055C1185.516-838.231,1185.054-838.234,1184.531-838.234Z" transform="translate(-111.95 -123.217)" fill="#166cf9"/>
      <path id="Path_32283" data-name="Path 32283" d="M1296.75-841.99c-.354,0-.637.016-.917,0a1.057,1.057,0,0,1-1.021-1.036,1.02,1.02,0,0,1,.931-1.065q2.085-.063,4.173,0a1.008,1.008,0,0,1,.939,1.1,1.049,1.049,0,0,1-1.051,1c-.281.015-.563,0-.911,0v.631c0,1.731,0,3.462,0,5.192,0,.8-.4,1.255-1.066,1.252s-1.07-.469-1.073-1.261c-.007-1.713,0-3.426,0-5.139Z" transform="translate(-208.335 -123.005)" fill="#166cf9"/>
      <path id="Path_32284" data-name="Path 32284" d="M1155.866-920.026c0,.7.005,1.324,0,1.945-.008.748-.411,1.214-1.049,1.227-.662.013-1.089-.46-1.091-1.234q-.006-2.968,0-5.935a1.091,1.091,0,0,1,1.219-1.225q1.123-.013,2.246,0a1.1,1.1,0,0,1,1.209,1.076,1.1,1.1,0,0,1-1.216,1.064c-.423.005-.846,0-1.29,0v.943c.412,0,.8-.01,1.188,0a1.076,1.076,0,0,1,1.122,1.048,1.09,1.09,0,0,1-1.1,1.084C1156.716-920.008,1156.325-920.026,1155.866-920.026Z" transform="translate(-87.403 -53.468)" fill="#166cf9"/>
    </g>
  </g>
</svg>
